<svg xmlns="http://www.w3.org/2000/svg" width="1333.333" height="1286.667" viewBox="0 0 1000 965" preserveAspectRatio="xMidYMid meet" xmlns:v="https://vecta.io/nano"><path d="M623.3 2.6c-2.2 2.2-2.5 3.2-2 6.6 1.6 11.7 17.1 32.2 26.2 34.7 9.5 2.6 13.1.8 12.8-6.4-.2-5.7-4.8-19-8.6-24.9-3.6-5.7-10.9-10.8-14.3-10-1.2.3-3.6-.1-5.2-1-4.3-2.2-5.9-2-8.9 1zm141.4 9.8c-18.8 7.8-35.2 30.7-49.6 69.4-5.5 15-4.5 14.5-21.5 11.3-24.9-4.6-45.9-5-61.2-1.1-26.4 6.8-40.1 27.1-36.6 54.1 1.3 9 5.5 22.7 9.9 31.2 4.4 8.7 17.4 27.1 24.3 34.2 12.4 12.9 12.7 15.5 3.3 30.3-14.4 22.8-24.6 47-27.8 65.6-3.8 22.2.6 39.2 13.8 53.2 4.8 5.2 7.9 7.4 15.1 10.9 14.1 6.7 20.2 8 40.1 8 17.2 0 36.3-2.4 48.3-6.1 10.8-3.2 14.4-1.5 20.1 9.9 8.5 17.3 24.4 36.4 37.2 44.7 12.2 7.9 28.8 10.4 41.2 6.2 21.1-7.1 39.9-29.6 52.2-62.4 2.9-7.7 6.5-8.2 34.3-4.3 10.1 1.3 12.6 1.3 22.5 0 16.7-2.1 24.5-5.4 33.4-13.7 12.7-12.1 17.8-30.3 13.9-49.6-2.1-10.3-4.3-15.4-9.9-23.1-2.5-3.4-7.6-11.8-11.4-18.7-3.7-6.9-8.9-15.3-11.5-18.7s-4.7-7.1-4.8-8.2c0-1.1 5.1-8.9 11.3-17.4 30.8-41.5 43.5-70.6 43.7-99.3.1-31.2-14.3-51.5-41.7-59-6.4-1.7-10.7-2.1-23.8-2.2-19.1 0-31.6 1.7-56.6 8-9.7 2.4-18.3 4.4-19.2 4.4s-5.1-5.1-9.8-12c-25-37-56.3-55-79.2-45.6zm31 24.7c9.9 4.8 26.4 23.6 30.8 35.3 2 5.3 1.3 9.6-1.6 10.3-4.3 1.1-15.9 7.3-26.4 14-19.5 12.5-31.6 17.2-39 15.2-22.8-6.1-29.5-9.3-29.5-14.3 0-1.2 1.8-7.7 4-14.4 10.4-32.3 21.6-46.1 40-49.6 5.8-1 15.5.5 21.7 3.5zm152.1 41.4c18.1 4.2 29.4 16.2 32.2 34.2 2.6 16.3-5 40.3-20.5 65.2-9.9 15.8-30.7 41.1-33.9 41.1-1.7 0-22.8-17.3-28.8-23.6-8.7-9.2-12.7-19.2-16.7-42.5-1.3-7.1-4.2-17.6-7.5-27-6.7-19.1-7.7-22.8-7.9-29.6-.1-3.8.3-5.7 1.3-6.3 2.9-1.8 22.8-7.9 32.6-9.9 19.5-4.2 35.4-4.7 49.2-1.6zm-108.3 24.7c3 2.3 6.3 9 8.8 17.9 1.9 6.4 7.7 35.1 7.7 37.8 0 3.5-2.7 2.9-12.6-2.8-5.4-3.2-16.2-9.3-23.9-13.6s-17.3-10-21.3-12.7l-7.3-4.9 4.3-3.5c2.4-1.9 9.9-6.1 16.8-9.5l17.5-8.4c6.2-3 6.6-3 10-.3zm-165 1.3c19.1 2.8 27.7 4.7 29.7 6.7 1.8 1.8 1.9 2.9 1.3 10.6-1.8 23.2-5.3 37.4-11.6 47.5-4.9 7.6-35.7 38.7-38.4 38.7-7.7 0-25.8-21.7-37.5-45-10.4-20.7-12.4-30.9-8.1-40.7 3.9-8.9 11.9-14.9 23.6-17.9 6.9-1.7 29-1.7 41 .1zm61.1 15.1c3.3 1.5 6.9 3.6 8.1 4.7l2.2 1.9-6.1 5.7c-11 10.3-16.7 13.1-18.6 9.3-1.2-2.2 1.4-18.9 3.4-22 1.9-2.9 3.9-2.8 11 .4zm50.2 23.8c19.6 9.9 69.3 42.2 73.5 47.8 5.1 6.8 6.4 16.3 7.3 52.3.6 23 .5 24.2-1.6 29.8-1.7 4.6-3 6.3-6.3 8.5-2.3 1.5-10.7 7.6-18.7 13.6-26.3 19.9-34.4 21.5-52.3 10.6-3.7-2.2-14.2-7.7-23.4-12.3-24.9-12.3-30.9-16.5-37.9-26-7.3-9.9-8.6-15.7-9.2-40.7-1-43.9-1-44 1.8-49.5 1.9-3.6 4.3-6.1 9-9.3 3.6-2.5 10.6-8.1 15.5-12.5 20.2-18 27-20 42.3-12.3zm-86.2 56c1.2 2 1.4 4 .9 10.3-.4 5.3-.1 10.9.9 17.3 2 12.1 2.1 20.4.1 22-1.1.9-2.3.5-6.2-2.1-16.9-11.5-23.1-17.2-24.8-22.7-.6-2 .8-3.9 9.7-12.9 9.3-9.5 15-14.3 17-14.3.4 0 1.5 1.1 2.4 2.4zm205.2 29.5c2.8 3.3 5.2 6.7 5.2 7.6 0 2.2-7.2 9.7-11.5 12-3.3 1.9-3.6 1.9-5.2.2-1.5-1.5-1.8-3.6-1.8-13.6 0-13.7.9-16 5.4-13.7 1.4.8 5 4.1 7.9 7.5zm-245 16c3.8 2 10.6 7.7 25.4 21.2 4.6 4.2 10.1 8.8 12.4 10.2 8.5 5.3 14.6 16.6 19 34.8 2.7 11.5 6.3 25.7 8.6 33.8 1.2 4.2 1.2 4.4-1.5 6.7-1.5 1.3-5.1 3-8 3.9-7.4 2.1-39.8 5.9-48.7 5.6-22.1-.6-38.3-8.8-45.2-22.9-3.2-6.5-3.3-7-3.3-19.7.1-12 .3-13.7 3.2-22.2 5.7-16.2 14.8-32.7 26-46.6 2.9-3.7 6.1-6.7 6.9-6.7s3.1.9 5.2 1.9zm273.6 14.3c10.2 10.3 20.3 27.6 21.2 36.1.2 2.3 1 7.1 1.9 10.7 1.9 8.2 1.8 9.4-.1 16.1-1.2 4.1-2.8 6.6-6.8 10.5-9 8.8-21.6 12-42.1 10.9-23.4-1.3-25.2-3.2-20.9-22.5.9-4.1 1.9-12.6 2.4-18.7 1.1-16.5 3.5-21.2 19.7-37.1 15.3-15 15.6-15.1 24.7-6zm-191.6 46.3c11.1 5.3 36.2 21.7 36.2 23.7 0 2.3-5.1 6.3-10.7 8.3l-13.4 5.1c-4.8 1.9-9.1 3.4-9.7 3.4-1.8 0-5.3-4.2-7.4-8.9-2.6-6.2-9.1-31.9-8.4-33.7.9-2.3 5.7-1.6 13.4 2.1zm120.8 2.9c1.4 2.3 1.4 3.3 0 12.2-2.1 13.2-2.2 13.3-13.8 10.5-9.9-2.4-13.8-4.3-13.8-6.5 0-2.9 20.9-18.6 24.7-18.6.7 0 2 1.1 2.9 2.4zM818.5 345c8.1 2.1 29.3 10.1 33.3 12.6 1.2.8 2.2 2.2 2.2 3.2 0 2.8-10.2 27.3-14 33.7-9.1 15.3-21.2 24.1-34.8 25.2-6.9.6-7.6.4-14.5-3-17.3-8.6-37.8-33.8-38.1-47l-.1-4.8 20-9.5c27.7-13.2 31.6-14.1 46-10.4zm-47.6-157c-5.1 2.7-10.5 9.3-13 15.9-1.7 4.6-2 7.1-1.6 14.1 1 18.5 10.9 31.1 23.1 29.8 9.4-1.1 20.4-8.2 25.1-16.3 8.6-14.6 1.7-36.5-13.8-43.6-5.6-2.5-15-2.5-19.8.1zM451.2 15c-10.1 6.2-3.4 16 11 16.1 7 .1 22.6-1.9 25-3.2 3-1.6 2.1-4.6-2.2-7.5-10.6-7-26.9-9.6-33.8-5.4zm-206.8 5.3c-2.3 2-2.9 3.3-2.9 6.6 0 6 2.8 8.8 15.6 15.8 15.8 8.6 25.4 10.9 30.9 7.4 1.2-.9 1.2-1.4-.2-4.3-4.1-8.7-18.3-20.6-29.5-24.8-9.2-3.4-10.6-3.5-13.9-.7zm-103 24.1c-3.7 1.7-4.4 3.2-4.4 10.1 0 7.5.9 8 12.3 6.9 5.1-.4 12.3-.8 16.1-.9 5.3 0 7.1-.4 7.9-1.6 4.3-6.9-22.2-18.9-31.9-14.5zM504.6 73c-3.9 1.2-7.4 4.6-8.1 8.1-1.2 5.3 2.6 8.9 12.1 11.4 6.3 1.6 36.7 4.9 46 4.9 14 .1 12-7.4-4-15.3-16-7.8-36.6-11.9-46-9.1zm-170.8 5.5c-8.3 4.7-7.1 17.4 2 21.2 4 1.7 13.2 1.3 20.5-.9 7.8-2.3 11.1-10.4 6.3-15.3-4.8-4.8-23.5-8-28.8-5zM187.5 117c-14.2.8-20.2 2.5-23.5 6.8-4.5 5.6-.7 13.8 7.6 16.1 9.9 2.8 28.7.2 41.7-5.7 6.7-3.1 13.7-8.5 13.7-10.7 0-5.7-13.9-8-39.5-6.5zm89.2 7.8c-2.5 2.8-2.3 12.6.3 15.2 3.9 3.9 14.3 1.9 20.3-3.7 5.3-5.2 3-9.2-6.9-11.7-8.1-2.1-11.7-2-13.7.2zm166.6 20.6c-14.2 4.6-16.3 12.7-4.8 18.5 4.3 2.3 6.5 2.6 16.9 3 13.6.4 19.1-.8 20.7-4.3.8-1.8.7-3.1-.5-5.4-4.6-9-21.8-15.2-32.3-11.8zm-122.4 26.2c-9.5 2.9-12.9 9.6-6.6 13.4 4.6 2.9 9.1 3.4 15.6 2 13.7-3 16.9-6.4 11.3-12-4.8-4.8-12-6-20.3-3.4zM500 210.7c-13.5 2.1-23.7 4.9-25.7 6.9-2.6 2.6-2.9 6.3-.9 10.3 2.4 4.6 5.1 5.2 16.3 3.5 18.4-2.8 28-6.3 34.2-12.4 4-4 3.9-5.8-.4-7.6-3.2-1.3-17-1.8-23.5-.7zm-348 2.8c-14.7 3.6-26 11.9-26 19.2 0 1.2 1.2 3.1 2.6 4.2 5.7 4.5 21.7 1.9 41-6.6 12.2-5.3 13.7-6.9 12.8-13.6l-.7-4.7-12.1.1c-6.6 0-14.6.7-17.6 1.4zm172 31.2c-13.7 2.4-18.3 8.4-12.9 17.2l2 3.4 10.7-.6c11.9-.5 18.2-2.3 22.4-6.4 3.4-3.2 3.6-6.3.6-9.7-3.2-3.7-13.8-5.5-22.8-3.9zm-98.6 10.9c-4.8 2.3-11.9 3.4-30.8 5-8.3.7-11.6 3.2-11.6 8.8 0 2.6.7 4 3.2 6.1 3.1 2.6 3.6 2.7 11 2.1 17.8-1.5 32.2-10.5 34.4-21.4.8-3.8.5-3.8-6.2-.6zM76.5 273.7c-5.8.6-15.4 3.5-16.6 4.9-2.1 2.6-.1 6.1 5.6 9.7 6.3 3.9 7.4 4.1 42 8.2 23.3 2.7 33 4.3 48.7 7.7 10.7 2.4 14.8 1.8 14.8-2.2 0-5.3-13.6-15.3-27.5-20.3-16.6-5.9-50.6-10-67-8zM563.7 290c-7.5 2.3-15 12.3-13.2 17.6 1.9 5.3 3.7 5.3 13.1.4 10.8-5.7 15.6-9.6 15.2-12.3-.6-4.3-9.1-7.5-15.1-5.7zm-156.2 15.4c-6.7 1.7-10.7 3.9-14 7.8-3.8 4.5-5.5 8.9-5.5 14.3 0 3.7.5 5.1 2.6 7 2.3 2.1 3.7 2.5 8.8 2.5 10.3-.1 20.1-6.1 23-14.3 2.5-7 3-15.2 1.1-17.1-2-1.9-8.7-2-16-.2zm-185 45.3c-1.1.2-3.9 1.1-6.2 1.9-10 3.6-2 10.1 21.2 17 11.2 3.4 25.6 6.2 35.6 7 10.4.8 12.9-.7 11.9-7.6-.9-6.8-16.5-13-42.3-16.9-13.4-2.1-16.3-2.3-20.2-1.4zM53 353.3c-4.8 2.4-3.3 8 3.1 11.2 7.8 4.1 28.5 7.4 64.4 10.2 26.4 2 38 2.2 39.6.6 2.1-2.1-.7-4-10.4-7.2-32.9-10.8-87.9-19.2-96.7-14.8zM474 366c-1.1.7-.4 1 2.5.9 3.1 0 3.6-.2 2-.9-2.6-1.1-2.8-1.1-4.5 0zm88 26.6c-17.2 7.5-17.1 31.4.1 29.1 5.1-.7 12.8-5.4 14.8-8.9 1.4-2.4 1.3-3.3-.7-9.7-3.6-10.9-7.2-13.6-14.2-10.5zm-76 29.9c-.8.3-20.4 1.4-43.5 2.5l-79.5 4-91 4.5c-124.6 5.8-196.4 10.9-254.4 18-15.8 2-20 4.7-14.1 9.3 5.2 4.1 10.7 4.6 50.5 3.9 62.6-1.1 135.8-4.3 335.5-14.7l67-3.5 33.1-1.5h5l2.8 21.7c1.8 14.3 2.6 25.1 2.4 31.3l-.3 9.5-70 .1c-47.2 0-73.1.4-79.5 1.2-5.2.6-18.3 1.2-29.1 1.2-23.3 0-47.8 1.2-95.9 4.5-46 3.2-70.5 4.5-86.1 4.5-21.9 0-38.9 2.3-64.1 8.6-14.3 3.5-19.6 4.1-22.9 2.4-4-2.2-6.1-9.5-8.3-28.8-1.2-10.6-1.8-12.8-4.1-15.8-4.8-6.2-12.1-8.1-17-4.2-2.6 2-2.7 2.5-2.2 8.2.3 3.4 1.2 9.8 2.1 14.4 2.2 11.6 3.3 33.1 4.6 87.2l2.6 93L32 797.5c.7 54.2 1.3 71.8 3 92 1.2 13.7 2.5 32 2.9 40.6.5 12.4 1 16.1 2.4 18.3 1 1.5 2.4 2.9 3 3 1.6.5 35.6 4.3 48.7 5.6 30.7 2.8 58.5 3.2 237.5 3.5l195.5 1.3c5.8.6 15.7 1.4 22 1.8 11 .6 11.6.5 14.9-1.7 8.6-6 9.5-14.2 5.7-52.4-4.8-48.5-6.9-74.6-15.1-188.5L545 621c-7.1-83.2-18.7-177.6-23-186-2.5-4.8-8-9.6-12.7-11-3.9-1.2-20.6-2.2-23.3-1.5zm16.4 99.7c1 1.3 1.6 4.4 1.6 7.5 0 6.3 6.2 74.9 8.9 99.3l3.5 31c.9 7.4 2.9 20.6 4.6 29.3 4.6 24.2 4.1 28.4-4 32.5-6.9 3.4-16 4-74 5.2-90 1.8-168.4 5.4-293.9 13.5-46.3 3-47 3-47.8.8-.4-1.1 4.2-11.3 13-28.9 19.5-38.7 34.6-60.7 51.1-74.4 14.2-11.8 34.8-21 43.8-19.6 6.4 1 19.6 7.8 29 14.8 4.6 3.5 18.4 16.5 30.8 28.9 29.8 29.9 40.5 37.8 51.3 37.9 10.4 0 16.3-4.5 31.1-24.4 22.6-30.1 25.8-30.9 46.4-11.4 13.2 12.5 43.4 37.3 50 40.9 6.8 3.8 11.6 4.5 14.1 2 1.8-1.8 1.9-2.5.9-5.3-.6-1.8-3.6-5.6-6.6-8.3l-24.7-23.6C402.6 642 391 634 378.4 633.2c-5.4-.4-6.8 0-13.5 3.3-17 8.6-28.5 18.7-37.4 32.9-2.5 4.1-5.5 7.8-6.5 8.1-4.1 1.3-5.6 0-45.4-37.4-29.2-27.4-37.1-33.6-47.1-37.3-7.5-2.7-23.3-3.6-31.4-1.8-23.8 5.2-49.6 26.4-71.4 58.6-13.2 19.6-23.2 40.2-32.3 66.7-5 14.8-6.2 17.1-10.2 19.1-2.3 1.2-22 5.6-25.1 5.6-1.8 0-4-4.3-5.2-10.1-.6-3.4-1.2-29.5-1.4-70.9l-1.4-86.5c-.6-11.6-1.1-25.6-1.1-31.2 0-9 .2-10.3 1.9-11.2 3.5-1.9 50.4-5.1 103.6-7.1l135.5-6.5c33.7-2.6 58.5-3.4 128-4.5l72-2c8.1-1.4 10.8-1.2 12.4 1.2zm22.8 210.5c2.8 3.1 6.3 25.2 11.3 70.3l4.5 40 3 30.5c.6 7.7 2.7 23.3 4.6 34.8 4.3 26.2 4.4 29.9.6 33.7-2.2 2.2-4.2 3-8.8 3.6-6.6.8-52.8 0-87.9-1.5-48.4-2.2-126.9-3.1-259.7-3.1H55v-3.8c0-2-.5-10.5-1-18.7-2.5-41.8-3.2-75.3-2.1-109l1.9-37.4c.4-1.9 1.8-4.2 3.2-5.2 2.6-1.9 2.9-1.9 46.5-5.4 10.5-.9 23.1-2.3 28-3.2 5-1 12.1-1.6 15.8-1.5 5 .2 7.6-.1 9.4-1.3 2.2-1.5 2.7-1.5 5.8-.1 4.9 2.4 14.7 2 26.1-.9 6.9-1.8 13.3-2.7 20.9-2.9 6.1-.2 40.5-2.9 76.5-5.9 87.4-7.5 112.2-9.1 200-13.1 39.2-1.9 37.5-1.9 39.2.1zm-125-179.2c-6 1.9-10.6 5.7-13.2 11-2 4.1-2.2 5.7-1.8 18.8.3 13.8.4 14.5 3.6 20.9 7.7 15.8 23.8 23.7 45.5 22.6 12-.7 18-3.2 24.6-10.4 6.4-7 8.5-13.1 7.9-22.8-.7-9.5-3.7-15.6-11.7-23.7-13.6-13.6-39.2-21.3-54.9-16.4zm19.5 19.1c11.6 5.9 22.7 18.9 22.1 26-.4 4.8-3.5 7.1-10.9 8.3-6.9 1.2-11.9.1-16.5-3.4-11-8.4-14.9-27.4-6.6-31.9 3.9-2.1 6-2 11.9 1zm-21.2 199.5c-11 1-22.3 2.3-25.1 2.9-6.5 1.4-11.7 5-14.8 10.3-4.3 7.4-4.9 13.8-4.2 40.7 1 38.6 3.6 50.4 12.9 58.6 8.6 7.6 22.1 9.2 45.2 5.5 20-3.3 48-6.1 66.3-6.8 10.1-.4 17.9-1.1 18.8-1.7 6.1-4.5 3.4-42-5.2-71.8-4.7-16.4-10.8-27.8-15.7-29.4-1.1-.3-4.7-.7-7.9-.9-4-.1-6.7-.8-8.6-2.2-5.8-4.3-20.4-7.3-34.2-7.2-4.1.1-16.5 1-27.5 2zm60.2 14.4c9.9 5 15.2 16.8 22.8 51.3 1.3 6.2 3.1 13.3 4 15.8.8 2.5 1.5 6.7 1.5 9.4 0 7-1.2 7.5-18.5 7.2-10-.2-22.7.6-44.4 2.8-34.7 3.4-37.9 3.6-40.8 1.5-3.9-2.8-4.4-7-4.6-38.7-.3-41.5.4-44 13-45.2 3.7-.4 14.9-2 24.8-3.5 9.9-1.6 22.3-2.9 27.6-3 8.3-.1 10.2.2 14.6 2.4zM437 803c-1.5 1.5-2 3.3-2 7.6 0 4.9.4 5.9 3.1 8.6 2.8 2.9 3.3 3 8.6 2.5 10.1-1 13.2-5.8 8.3-12.7-2.6-3.7-9.8-8-13.3-8-1.5 0-3.6.9-4.7 2zm-36.3 4.8c-4.3 4.7-.4 13.2 6 13.2 7.5 0 11.2-8.5 5.7-12.9-3.4-2.7-9.5-2.8-11.7-.3zm46.4 29.8c-7.1 5.1-16.3 5.5-26 1.3-6.1-2.6-8.4-1.5-7.9 3.5.9 8.8 29.1 16.1 37.8 9.8 4-3 5.4-6.8 4.4-12.1-1.1-5.5-3.2-6.2-8.3-2.5zm-169.1-56c-2.4 1.4-8.4 6.3-13.2 11-11.6 11.1-14.5 11.1-20.9-.4-4.6-8.3-7.6-11.2-11.5-11.2-4.4 0-11.7 5.2-18.2 13-11.2 13.5-12.7 15-15.4 15-3.5 0-8-3.9-13-11.3-6-8.9-10.5-13.4-14.4-14.7-3.1-1-4.1-.8-10 1.9-8.7 4.1-16.7 12.3-22.1 22.7-3.9 7.6-7.3 17-7.3 20.3.1 2.9 3.6 6.3 6.4 6.3 3.8 0 7.7-4 15.1-15.2 5.5-8.5 11.4-15.1 13.3-15 2 .1 5.9 3.4 13.6 11.6 4.7 5 10.1 9.9 12 10.8 4.5 2.1 9.8 2 14.4-.3 4.2-2.1 13.5-11.5 17.6-17.8 1.5-2.3 3.5-4.4 4.3-4.7 2.3-.9 5.3 1.4 9.2 7 4.4 6.5 8.3 9.5 13 10.1 4.9.7 8.2-1.1 17.2-9 12.9-11.3 15.1-12 19.3-5.7 1.5 2.3 4.3 4.8 6.2 5.8 3.4 1.6 3.6 1.6 5-.3 2-2.7 1.7-6.9-1.1-16-1.4-4.4-2.5-8.7-2.5-9.7 0-2.6-5.7-6.8-9.3-6.8-1.8 0-5.2 1.2-7.7 2.6zm-46.5 74.6c-35.8 1.7-61.3 4.1-70.7 6.8-4.9 1.4-8.3 4.3-7.5 6.3.6 1.5 2.7 1.7 16.9 1.7 9 0 33.4-.9 54.3-2l49.1-2c12.1 0 14.8-1 14.2-5-.1-1.2-1.6-3.2-3.1-4.4-2.6-1.9-4.2-2.1-20.5-2.1-9.7 0-24.4.3-32.7.7zm-24.1 34.9c-21.5 1-34.6 3.3-37.9 6.5-3.3 3.4-1.4 4.3 10.5 5.1 22 1.4 75-6 69-9.7-3.3-2-22-2.9-41.6-1.9zm739-464.1c-3.5 1.4-6.6 6.1-5.9 9 1.1 4.7 8.3 18.5 12 22.8 4.2 4.8 12.8 10.2 16.4 10.2 2.3 0 2.4-.2 1.9-6.3-.7-7.4-9.8-32.3-13-35-2.1-1.8-7.8-2.2-11.4-.7zm-311.5 12.8c-10.3 10.6-20.3 24-23.4 31.6-3.7 8.8 0 14.7 7.8 12.5 5.9-1.6 18.1-10.4 25.1-18.1 10.8-11.8 15.1-22.2 12.2-29.2-1.5-3.5-6.6-7.6-9.6-7.6-.8 0-6.3 4.9-12.1 10.8zm78.2-6.2c-3.2 2.3-5.1 7.3-5.1 13.4 0 9 4.1 15 10.2 15 3.5 0 5-2.8 7.2-13.4 2.1-10.3 2-11.2-.9-14.1s-7.9-3.3-11.4-.9zM457.5 464c-5.5 3.9-7 4.1-13.5 1.8-5.1-1.7-6.6-1.8-8.7-.9l-2.6 1.2 3.7 3.3c4.7 4.4 4.6 7-.4 13.4-4.3 5.4-4.9 7.6-2.4 8.6 3.4 1.3 6.4.4 12-3.4 3.3-2.2 6.4-4 6.9-4 .6 0 4.3 2.3 8.3 5 7.5 5.1 11.8 6.2 12.9 3.4.9-2.4-.8-4.9-6.4-9.3-2.9-2.3-5.3-5-5.3-6s1.6-3.8 3.6-6.4c4.5-5.8 4.3-8.1-1.1-8.5-2.8-.2-4.9.4-7 1.8zm-303.6 20.9c-3.3 3.4-3.8 7.5-1.4 12.1 2.6 5.1 9.4 5.2 14.2.4 2.2-2.2 2.5-3.2 2-6.7-1.1-8.3-9.2-11.4-14.8-5.8zm-79.8.7c-4.3 3.6-5.8 8.9-3.8 13.7 1.9 4.5 7.2 8 10.7 7.1 8-1.9 13.3-16.1 8-21.4-3.1-3.1-10.9-2.8-14.9.6zm40.3-1.6c-6.1 2.5-8.6 12.9-4.4 18.3 5.6 7.2 21 4.8 24.6-3.8 2.2-5.3-.4-11.2-6.1-13.9-3.5-1.7-10.7-2-14.1-.6zm665.1 32c-7.8 3.2-11.8 16.1-9.5 30.1 3.9 23.7 17.1 38.3 23.4 26.1 3.2-6.2 3.6-10.4 2.5-24.7-1.6-21.8-3.7-28.7-9.5-31.1-3.8-1.6-4.1-1.6-6.9-.4zm101.1 27.1c-6.6 5.2-7.2 18.3-1.4 35.7 2.8 8.5 3.9 10.4 8.4 14.9 6.4 6.4 9.9 7.6 12.6 4.2 1.4-1.7 1.8-3.2 1.3-5.5-.3-1.8-1-9.9-1.5-18.1-1.2-19.2-2.9-25-8.9-29.2-5.2-3.7-7.7-4.2-10.5-2zM672 568.2c-5.1 3.5-10.6 11.4-13.6 19.5-2.4 6.6-2.6 8.1-1.9 15.5.7 8.8 1.7 11.8 4 11.8 1.6 0 15.7-21.1 19.2-28.8 2.6-5.5 3.6-16.3 1.8-18.1-2.3-2.2-6-2.2-9.5.1zm268.5 25.5c-10.2 2.8-8.3 12.3 5.1 25.7 16.1 16.2 25.1 14.9 19-2.8-5.7-16.6-14.9-25.4-24.1-22.9zm-113.9 59.2c-2.7 3-5.5 11.5-6.2 18.8-1.4 14.7 4.6 29.1 14 34 2.6 1.4 3 1.3 4.9-.6 2.9-2.9 3.6-13.2 1.2-17.7-1.6-3.1-1.6-3.6-.2-6.6s1.4-4-.4-11.6c-3.6-15.5-8.5-21.6-13.3-16.3zm-74.3 50.3c-3.3 1.6-5.6 7.3-5 12.2 1 6.6 8.5 29.1 10.8 32 2.7 3.4 3.5 3.3 4.9-.7 1.5-4.2 3.6-33.3 2.6-37-1.6-6.3-7.6-9.3-13.3-6.5zm155.8 29.7c-3 3.2-5.1 9-5.1 14.3 0 4.9 6.4 17.3 11.6 22.5 4.8 4.7 7.8 5.4 11.3 2.5l2.1-1.7-3.8-17.7c-3-14-4.3-18.3-6.2-20.3-3.1-3.3-6.6-3.2-9.9.4zm-224.2 3c-5.3 5.7-8.3 13.8-8.3 23.1-.1 11.5 3.1 16.8 8.4 14 5.5-2.9 13.5-19.9 14.7-31.1.5-5.2.4-5.7-2.2-7.7-4.3-3.4-8.2-2.9-12.6 1.7zm-72.6 63.5c-3.8 1.7-5.3 4.3-5.3 9.1 0 4.4.9 6.1 12.5 25 5.1 8.2 12.1 20.1 15.6 26.4 8.9 15.9 16.1 23.6 23.9 25.4 5.8 1.4 5.6-.1-3.6-20.9-16.9-38.3-32.5-65.5-37.9-66.1-1.1-.2-3.4.4-5.2 1.1zm115.8 24.8c-2.6 2.7-3.6 7.9-2.3 11.7.9 2.5.8 2.9-.6 2.8-.9 0-3 .3-4.5.6-12.1 3.1 1.8 30.2 39.5 76.9 8.6 10.7 15.7 16 18.3 13.8 2.1-1.7 1.9-3.6-1-13-4.7-14.6-20.4-43.2-33.3-60.5-5-6.7-5.8-8.3-5.1-10.3 1.6-4.3 1-14-1.1-18.2-3.1-6.1-6.6-7.4-9.9-3.8zm134 3.5c-6.1 3-7.2 6.3-6.5 18.3.7 11.3 1.3 13.5 4.1 14.2 3.2.9 10.8-2 13.8-5.2 2.8-2.9 3-3.7 3.2-11.8.2-10.5-.9-14.5-4.3-16.1-3.4-1.5-6.3-1.4-10.3.6zM962.7 839c-4.2 3.3-6.1 9.6-4.8 16.4 1.9 10.5 9.9 21.6 15.5 21.6 5.9 0 11-12.5 8.7-21.5-1.7-6.8-4.5-11.7-8.6-15.3-4.1-3.7-7.2-4-10.8-1.2z"/></svg>